<svg xmlns="http://www.w3.org/2000/svg" xmlns:xlink="http://www.w3.org/1999/xlink" width="1920" zoomAndPan="magnify" viewBox="0 0 1440 525.000007" height="700" preserveAspectRatio="xMidYMid meet" version="1.0"><defs><g/><clipPath id="de394dc539"><path d="M 1.367188 0 L 1438.628906 0 L 1438.628906 524 L 1.367188 524 Z M 1.367188 0 " clip-rule="nonzero"/></clipPath><clipPath id="ee0a92a2eb"><path d="M 35.804688 0 L 1404.195312 0 C 1413.328125 0 1422.085938 3.628906 1428.546875 10.085938 C 1435.003906 16.542969 1438.632812 25.300781 1438.632812 34.433594 L 1438.632812 489.566406 C 1438.632812 498.699219 1435.003906 507.457031 1428.546875 513.917969 C 1422.085938 520.375 1413.328125 524 1404.195312 524 L 35.804688 524 C 26.671875 524 17.914062 520.375 11.453125 513.917969 C 4.996094 507.457031 1.367188 498.699219 1.367188 489.566406 L 1.367188 34.433594 C 1.367188 25.300781 4.996094 16.542969 11.453125 10.085938 C 17.914062 3.628906 26.671875 0 35.804688 0 " clip-rule="nonzero"/></clipPath><clipPath id="ea709399a2"><path d="M 263 97.507812 L 531.316406 97.507812 L 531.316406 426 L 263 426 Z M 263 97.507812 " clip-rule="nonzero"/></clipPath></defs><g clip-path="url(#de394dc539)"><g clip-path="url(#ee0a92a2eb)"><path fill="#010129" d="M 1.367188 0 L 1439.398438 0 L 1439.398438 524.320312 L 1.367188 524.320312 Z M 1.367188 0 " fill-opacity="1" fill-rule="nonzero"/></g></g><g clip-path="url(#ea709399a2)"><path fill="#ffffff" d="M 487.019531 271.652344 C 487.488281 321.257812 530.585938 337.761719 531.066406 337.96875 C 530.703125 339.136719 524.179688 361.5 508.355469 384.59375 C 494.679688 404.5625 480.484375 424.464844 458.113281 424.871094 C 436.140625 425.277344 429.074219 411.859375 403.949219 411.859375 C 378.835938 411.859375 370.984375 424.464844 350.1875 425.277344 C 328.601562 426.089844 312.164062 403.683594 298.371094 383.792969 C 270.1875 343.089844 248.652344 268.792969 277.570312 218.636719 C 291.9375 193.730469 317.609375 177.957031 345.476562 177.550781 C 366.675781 177.148438 386.683594 191.796875 399.636719 191.796875 C 412.59375 191.796875 436.902344 174.183594 462.46875 176.769531 C 473.167969 177.214844 503.195312 181.085938 522.488281 209.285156 C 520.933594 210.242188 486.652344 230.175781 487.019531 271.652344 M 445.722656 149.847656 C 457.183594 135.988281 464.898438 116.699219 462.789062 97.507812 C 446.277344 98.171875 426.296875 108.503906 414.449219 122.351562 C 403.835938 134.617188 394.535156 154.242188 397.039062 173.054688 C 415.453125 174.480469 434.261719 163.710938 445.722656 149.847656 " fill-opacity="1" fill-rule="nonzero"/></g><g fill="#ffffff" fill-opacity="1"><g transform="translate(654.546924, 303.96348)"><g><path d="M 9.734375 0 L 18.351562 -23.050781 L 58.632812 -23.050781 L 67.25 0 L 75.195312 0 L 42.96875 -85.378906 L 34.015625 -85.378906 L 1.789062 0 Z M 38.492188 -77.433594 L 56.171875 -29.988281 L 20.8125 -29.988281 Z M 38.492188 -77.433594 "/></g></g></g><g fill="#ffffff" fill-opacity="1"><g transform="translate(731.531172, 303.96348)"><g><path d="M 37.261719 -62.550781 C 28.199219 -62.550781 20.699219 -57.851562 15.328125 -50.019531 L 15.328125 -61.429688 L 8.054688 -61.429688 L 8.054688 23.945312 L 15.328125 23.945312 L 15.328125 -11.414062 C 20.8125 -3.355469 28.308594 1.117188 37.261719 1.117188 C 53.261719 1.117188 64.117188 -12.085938 64.117188 -30.773438 C 64.117188 -49.347656 53.261719 -62.550781 37.261719 -62.550781 Z M 36.589844 -56.058594 C 49.121094 -56.058594 56.84375 -45.09375 56.84375 -30.773438 C 56.84375 -16.335938 49.121094 -5.371094 36.589844 -5.371094 C 24.167969 -5.371094 15.105469 -16.226562 15.105469 -30.773438 C 15.105469 -45.207031 24.167969 -56.058594 36.589844 -56.058594 Z M 36.589844 -56.058594 "/></g></g></g><g fill="#ffffff" fill-opacity="1"><g transform="translate(801.242195, 303.96348)"><g><path d="M 37.261719 -62.550781 C 28.199219 -62.550781 20.699219 -57.851562 15.328125 -50.019531 L 15.328125 -61.429688 L 8.054688 -61.429688 L 8.054688 23.945312 L 15.328125 23.945312 L 15.328125 -11.414062 C 20.8125 -3.355469 28.308594 1.117188 37.261719 1.117188 C 53.261719 1.117188 64.117188 -12.085938 64.117188 -30.773438 C 64.117188 -49.347656 53.261719 -62.550781 37.261719 -62.550781 Z M 36.589844 -56.058594 C 49.121094 -56.058594 56.84375 -45.09375 56.84375 -30.773438 C 56.84375 -16.335938 49.121094 -5.371094 36.589844 -5.371094 C 24.167969 -5.371094 15.105469 -16.226562 15.105469 -30.773438 C 15.105469 -45.207031 24.167969 -56.058594 36.589844 -56.058594 Z M 36.589844 -56.058594 "/></g></g></g><g fill="#ffffff" fill-opacity="1"><g transform="translate(870.953218, 303.96348)"><g/></g></g><g fill="#ffffff" fill-opacity="1"><g transform="translate(902.284004, 303.96348)"><g><path d="M 37.933594 1.117188 C 57.292969 1.117188 67.585938 -8.953125 67.585938 -23.835938 C 67.585938 -41.960938 52.480469 -45.320312 38.605469 -48.339844 C 26.855469 -50.914062 15.890625 -53.375 15.890625 -64.566406 C 15.890625 -73.851562 24.167969 -79.558594 35.808594 -79.558594 C 46.773438 -79.558594 55.054688 -75.082031 57.402344 -62.886719 L 64.789062 -62.886719 C 62.101562 -79.558594 50.800781 -86.496094 35.917969 -86.496094 C 20.03125 -86.496094 8.167969 -77.769531 8.167969 -64.003906 C 8.167969 -47.554688 22.15625 -44.535156 35.582031 -41.625 C 48.003906 -38.941406 59.863281 -36.367188 59.863281 -23.5 C 59.863281 -12.421875 52.03125 -5.820312 38.492188 -5.820312 C 27.078125 -5.820312 15.105469 -10.183594 12.644531 -24.167969 L 4.8125 -24.167969 C 7.609375 -6.15625 21.820312 1.117188 37.933594 1.117188 Z M 37.933594 1.117188 "/></g></g></g><g fill="#ffffff" fill-opacity="1"><g transform="translate(975.351887, 303.96348)"><g><path d="M 34.578125 0 L 34.578125 -6.488281 L 28.421875 -6.488281 C 20.925781 -6.488281 20.253906 -9.847656 20.253906 -16.894531 L 20.253906 -54.941406 L 34.6875 -54.941406 L 34.6875 -61.429688 L 20.253906 -61.429688 L 20.253906 -85.378906 L 12.980469 -85.378906 L 12.980469 -61.429688 L 3.019531 -61.429688 L 3.019531 -54.941406 L 12.980469 -54.941406 L 12.980469 -15.441406 C 12.980469 -3.132812 17.457031 0 26.742188 0 Z M 34.578125 0 "/></g></g></g><g fill="#ffffff" fill-opacity="1"><g transform="translate(1014.067807, 303.96348)"><g><path d="M 34.800781 1.117188 C 52.144531 1.117188 64.453125 -12.644531 64.453125 -30.996094 C 64.453125 -49.011719 51.921875 -62.550781 34.800781 -62.550781 C 17.679688 -62.550781 5.371094 -49.011719 5.371094 -30.996094 C 5.371094 -12.421875 17.679688 1.117188 34.800781 1.117188 Z M 34.800781 -5.371094 C 22.15625 -5.371094 12.644531 -16.113281 12.644531 -30.996094 C 12.644531 -45.320312 22.042969 -56.058594 34.800781 -56.058594 C 47.667969 -56.058594 57.179688 -45.207031 57.179688 -30.996094 C 57.179688 -16.335938 47.554688 -5.371094 34.800781 -5.371094 Z M 34.800781 -5.371094 "/></g></g></g><g fill="#ffffff" fill-opacity="1"><g transform="translate(1084.002615, 303.96348)"><g><path d="M 34.128906 -62.550781 C 25.511719 -62.550781 19.246094 -59.082031 15.21875 -52.257812 L 15.21875 -61.429688 L 7.945312 -61.429688 L 7.945312 0 L 15.21875 0 L 15.21875 -29.988281 C 15.21875 -39.164062 16.671875 -45.542969 20.253906 -50.019531 C 23.164062 -53.710938 27.527344 -55.390625 33.34375 -55.390625 L 36.144531 -55.390625 L 36.144531 -62.550781 Z M 34.128906 -62.550781 "/></g></g></g><g fill="#ffffff" fill-opacity="1"><g transform="translate(1122.606637, 303.96348)"><g><path d="M 34.6875 1.117188 C 49.457031 1.117188 58.859375 -7.945312 62.4375 -19.359375 L 54.71875 -19.359375 C 51.921875 -11.636719 44.871094 -5.371094 34.6875 -5.371094 C 25.289062 -5.371094 17.679688 -11.300781 14.324219 -20.925781 C 13.316406 -23.722656 12.757812 -26.296875 12.53125 -29.429688 L 63.78125 -29.429688 C 63.78125 -30.660156 63.78125 -32.003906 63.667969 -33.234375 C 62.214844 -50.355469 51.472656 -62.550781 34.578125 -62.550781 C 16.449219 -62.550781 5.371094 -47.667969 5.371094 -30.660156 C 5.371094 -12.53125 17.566406 1.117188 34.6875 1.117188 Z M 12.980469 -35.359375 C 13.316406 -37.820312 14.097656 -40.953125 15.21875 -43.417969 C 18.6875 -51.359375 25.738281 -56.058594 34.6875 -56.058594 C 43.527344 -56.058594 51.136719 -51.25 54.71875 -42.96875 C 55.835938 -40.394531 56.285156 -38.15625 56.730469 -35.359375 Z M 12.980469 -35.359375 "/></g></g></g><g fill="#ffffff" fill-opacity="1"><g transform="translate(1191.640803, 303.96348)"><g/></g></g></svg>