<svg xmlns="http://www.w3.org/2000/svg" xmlns:xlink="http://www.w3.org/1999/xlink" width="1920" zoomAndPan="magnify" viewBox="0 0 1440 525.000007" height="700" preserveAspectRatio="xMidYMid meet" version="1.0"><defs><g/><clipPath id="1b49066a00"><path d="M 1.367188 0 L 1438.628906 0 L 1438.628906 524 L 1.367188 524 Z M 1.367188 0 " clip-rule="nonzero"/></clipPath><clipPath id="218c2594fa"><path d="M 35.804688 0 L 1404.195312 0 C 1413.328125 0 1422.085938 3.628906 1428.546875 10.085938 C 1435.003906 16.542969 1438.632812 25.300781 1438.632812 34.433594 L 1438.632812 489.566406 C 1438.632812 498.699219 1435.003906 507.457031 1428.546875 513.917969 C 1422.085938 520.375 1413.328125 524 1404.195312 524 L 35.804688 524 C 26.671875 524 17.914062 520.375 11.453125 513.917969 C 4.996094 507.457031 1.367188 498.699219 1.367188 489.566406 L 1.367188 34.433594 C 1.367188 25.300781 4.996094 16.542969 11.453125 10.085938 C 17.914062 3.628906 26.671875 0 35.804688 0 " clip-rule="nonzero"/></clipPath><clipPath id="ea90dc810e"><path d="M 196 97.507812 L 491 97.507812 L 491 425 L 196 425 Z M 196 97.507812 " clip-rule="nonzero"/></clipPath></defs><g clip-path="url(#1b49066a00)"><g clip-path="url(#218c2594fa)"><path fill="#010129" d="M 1.367188 0 L 1439.398438 0 L 1439.398438 524.320312 L 1.367188 524.320312 Z M 1.367188 0 " fill-opacity="1" fill-rule="nonzero"/></g></g><g clip-path="url(#ea90dc810e)"><path fill="#ffffff" d="M 255.035156 102.832031 L 427.398438 202.371094 L 377.683594 251.917969 L 224.546875 99.320312 C 228.121094 98.238281 231.773438 97.675781 235.507812 97.640625 C 238.933594 97.644531 242.300781 98.085938 245.609375 98.964844 C 248.921875 99.84375 252.0625 101.132812 255.035156 102.832031 Z M 196.5 385.6875 L 196.5 136.644531 C 196.53125 133.773438 196.875 130.9375 197.535156 128.144531 C 198.195312 125.347656 199.152344 122.65625 200.40625 120.074219 C 201.660156 117.488281 203.183594 115.074219 204.972656 112.828125 C 206.761719 110.582031 208.777344 108.558594 211.015625 106.757812 L 367.167969 262.429688 L 212.355469 416.675781 C 211.140625 415.78125 209.984375 414.824219 208.882812 413.796875 C 207.78125 412.769531 206.742188 411.683594 205.765625 410.539062 C 204.792969 409.390625 203.886719 408.191406 203.050781 406.941406 C 202.214844 405.6875 201.453125 404.390625 200.765625 403.050781 C 200.082031 401.710938 199.476562 400.335938 198.949219 398.925781 C 198.425781 397.515625 197.980469 396.078125 197.621094 394.617188 C 197.261719 393.15625 196.988281 391.679688 196.800781 390.183594 C 196.613281 388.691406 196.515625 387.191406 196.5 385.6875 Z M 255.035156 419.484375 C 252.890625 420.6875 250.652344 421.679688 248.320312 422.464844 C 245.992188 423.25 243.609375 423.816406 241.171875 424.160156 C 238.738281 424.503906 236.289062 424.617188 233.832031 424.507812 C 231.375 424.398438 228.949219 424.0625 226.554688 423.5 L 377.683594 272.972656 L 425.839844 320.941406 Z M 470.75 294.980469 L 439.179688 313.195312 L 388.210938 262.398438 L 440.753906 210.058594 L 470.75 227.367188 C 471.488281 227.792969 472.210938 228.242188 472.917969 228.71875 C 473.625 229.191406 474.316406 229.6875 474.992188 230.207031 C 475.667969 230.726562 476.324219 231.265625 476.964844 231.828125 C 477.605469 232.390625 478.226562 232.972656 478.828125 233.574219 C 479.429688 234.179688 480.007812 234.800781 480.570312 235.441406 C 481.132812 236.082031 481.671875 236.738281 482.1875 237.414062 C 482.707031 238.089844 483.203125 238.785156 483.675781 239.492188 C 484.148438 240.199219 484.597656 240.921875 485.023438 241.660156 C 485.449219 242.398438 485.847656 243.148438 486.226562 243.914062 C 486.601562 244.679688 486.953125 245.453125 487.277344 246.242188 C 487.601562 247.027344 487.902344 247.824219 488.175781 248.628906 C 488.449219 249.4375 488.695312 250.25 488.917969 251.074219 C 489.136719 251.898438 489.332031 252.726562 489.496094 253.5625 C 489.660156 254.394531 489.800781 255.234375 489.910156 256.078125 C 490.023438 256.925781 490.105469 257.769531 490.160156 258.621094 C 490.21875 259.472656 490.246094 260.320312 490.246094 261.171875 C 490.246094 262.023438 490.21875 262.875 490.160156 263.726562 C 490.105469 264.574219 490.023438 265.421875 489.910156 266.265625 C 489.800781 267.109375 489.660156 267.949219 489.496094 268.785156 C 489.332031 269.621094 489.136719 270.449219 488.917969 271.273438 C 488.695312 272.09375 488.449219 272.910156 488.175781 273.714844 C 487.902344 274.523438 487.601562 275.320312 487.277344 276.105469 C 486.953125 276.894531 486.601562 277.667969 486.226562 278.433594 C 485.847656 279.195312 485.449219 279.945312 485.023438 280.683594 C 484.597656 281.421875 484.148438 282.144531 483.675781 282.855469 C 483.203125 283.5625 482.707031 284.253906 482.1875 284.929688 C 481.671875 285.605469 481.132812 286.265625 480.570312 286.90625 C 480.007812 287.546875 479.429688 288.167969 478.828125 288.769531 C 478.226562 289.375 477.605469 289.957031 476.964844 290.519531 C 476.324219 291.078125 475.667969 291.621094 474.992188 292.140625 C 474.316406 292.660156 473.625 293.15625 472.917969 293.628906 C 472.210938 294.101562 471.488281 294.554688 470.75 294.980469 Z M 470.75 294.980469 " fill-opacity="1" fill-rule="nonzero"/></g><g fill="#ffffff" fill-opacity="1"><g transform="translate(589.944522, 303.96348)"><g><path d="M 44.871094 1.117188 C 57.066406 1.117188 69.375 -3.804688 73.40625 -15.777344 L 73.40625 0 L 80.566406 0 L 80.566406 -43.863281 L 51.921875 -43.863281 L 51.921875 -36.925781 L 72.84375 -36.925781 C 72.84375 -18.574219 62.328125 -5.820312 44.757812 -5.820312 C 23.609375 -5.820312 13.316406 -22.9375 13.316406 -42.855469 C 13.316406 -61.992188 22.828125 -79.558594 44.648438 -79.558594 C 58.746094 -79.558594 67.699219 -72.84375 70.605469 -62.886719 L 79.222656 -62.886719 C 75.53125 -76.539062 63.78125 -86.496094 44.757812 -86.496094 C 17.792969 -86.496094 5.59375 -65.347656 5.59375 -42.632812 C 5.59375 -20.03125 17.792969 1.117188 44.871094 1.117188 Z M 44.871094 1.117188 "/></g></g></g><g fill="#ffffff" fill-opacity="1"><g transform="translate(677.558867, 303.96348)"><g><path d="M 34.800781 1.117188 C 52.144531 1.117188 64.453125 -12.644531 64.453125 -30.996094 C 64.453125 -49.011719 51.921875 -62.550781 34.800781 -62.550781 C 17.679688 -62.550781 5.371094 -49.011719 5.371094 -30.996094 C 5.371094 -12.421875 17.679688 1.117188 34.800781 1.117188 Z M 34.800781 -5.371094 C 22.15625 -5.371094 12.644531 -16.113281 12.644531 -30.996094 C 12.644531 -45.320312 22.042969 -56.058594 34.800781 -56.058594 C 47.667969 -56.058594 57.179688 -45.207031 57.179688 -30.996094 C 57.179688 -16.335938 47.554688 -5.371094 34.800781 -5.371094 Z M 34.800781 -5.371094 "/></g></g></g><g fill="#ffffff" fill-opacity="1"><g transform="translate(747.493687, 303.96348)"><g><path d="M 34.800781 1.117188 C 52.144531 1.117188 64.453125 -12.644531 64.453125 -30.996094 C 64.453125 -49.011719 51.921875 -62.550781 34.800781 -62.550781 C 17.679688 -62.550781 5.371094 -49.011719 5.371094 -30.996094 C 5.371094 -12.421875 17.679688 1.117188 34.800781 1.117188 Z M 34.800781 -5.371094 C 22.15625 -5.371094 12.644531 -16.113281 12.644531 -30.996094 C 12.644531 -45.320312 22.042969 -56.058594 34.800781 -56.058594 C 47.667969 -56.058594 57.179688 -45.207031 57.179688 -30.996094 C 57.179688 -16.335938 47.554688 -5.371094 34.800781 -5.371094 Z M 34.800781 -5.371094 "/></g></g></g><g fill="#ffffff" fill-opacity="1"><g transform="translate(817.428495, 303.96348)"><g><path d="M 34.464844 25.066406 C 51.25 25.066406 61.65625 18.015625 61.65625 -0.785156 L 61.65625 -61.429688 L 54.382812 -61.429688 L 54.382812 -50.019531 C 49.011719 -57.851562 41.515625 -62.550781 32.449219 -62.550781 C 16.449219 -62.550781 5.59375 -49.347656 5.59375 -30.882812 C 5.59375 -12.195312 16.449219 1.117188 32.449219 1.117188 C 41.402344 1.117188 48.898438 -3.355469 54.382812 -11.414062 L 54.382812 0.449219 C 54.382812 12.085938 48.5625 18.574219 34.351562 18.574219 C 22.714844 18.574219 17.121094 14.433594 14.660156 6.265625 L 7.386719 6.265625 C 10.964844 19.804688 20.925781 25.066406 34.464844 25.066406 Z M 33.121094 -5.371094 C 20.589844 -5.371094 12.867188 -16.335938 12.867188 -30.660156 C 12.867188 -45.09375 20.367188 -56.058594 33.121094 -56.058594 C 45.542969 -56.058594 54.605469 -45.207031 54.605469 -30.660156 C 54.605469 -16.226562 45.542969 -5.371094 33.121094 -5.371094 Z M 33.121094 -5.371094 "/></g></g></g><g fill="#ffffff" fill-opacity="1"><g transform="translate(887.027632, 303.96348)"><g><path d="M 26.070312 0 L 26.070312 -6.488281 L 22.042969 -6.488281 C 15.664062 -6.488281 14.996094 -9.511719 14.996094 -15.441406 L 14.996094 -85.378906 L 7.722656 -85.378906 L 7.722656 -14.324219 C 7.722656 -3.132812 12.195312 0 20.476562 0 Z M 26.070312 0 "/></g></g></g><g fill="#ffffff" fill-opacity="1"><g transform="translate(916.456223, 303.96348)"><g><path d="M 34.6875 1.117188 C 49.457031 1.117188 58.859375 -7.945312 62.4375 -19.359375 L 54.71875 -19.359375 C 51.921875 -11.636719 44.871094 -5.371094 34.6875 -5.371094 C 25.289062 -5.371094 17.679688 -11.300781 14.324219 -20.925781 C 13.316406 -23.722656 12.757812 -26.296875 12.53125 -29.429688 L 63.78125 -29.429688 C 63.78125 -30.660156 63.78125 -32.003906 63.667969 -33.234375 C 62.214844 -50.355469 51.472656 -62.550781 34.578125 -62.550781 C 16.449219 -62.550781 5.371094 -47.667969 5.371094 -30.660156 C 5.371094 -12.53125 17.566406 1.117188 34.6875 1.117188 Z M 12.980469 -35.359375 C 13.316406 -37.820312 14.097656 -40.953125 15.21875 -43.417969 C 18.6875 -51.359375 25.738281 -56.058594 34.6875 -56.058594 C 43.527344 -56.058594 51.136719 -51.25 54.71875 -42.96875 C 55.835938 -40.394531 56.285156 -38.15625 56.730469 -35.359375 Z M 12.980469 -35.359375 "/></g></g></g><g fill="#ffffff" fill-opacity="1"><g transform="translate(985.49587, 303.96348)"><g/></g></g><g fill="#ffffff" fill-opacity="1"><g transform="translate(1016.826681, 303.96348)"><g><path d="M 16.5625 0 L 16.5625 -37.148438 L 38.378906 -37.148438 C 55.054688 -37.148438 65.460938 -45.988281 65.460938 -61.320312 C 65.460938 -77.210938 54.828125 -85.378906 38.378906 -85.378906 L 8.839844 -85.378906 L 8.839844 0 Z M 16.5625 -78.441406 L 37.375 -78.441406 C 50.355469 -78.441406 57.851562 -72.0625 57.851562 -61.097656 C 57.851562 -50.019531 50.578125 -43.863281 37.375 -43.863281 L 16.5625 -43.863281 Z M 16.5625 -78.441406 "/></g></g></g><g fill="#ffffff" fill-opacity="1"><g transform="translate(1086.201996, 303.96348)"><g><path d="M 26.070312 0 L 26.070312 -6.488281 L 22.042969 -6.488281 C 15.664062 -6.488281 14.996094 -9.511719 14.996094 -15.441406 L 14.996094 -85.378906 L 7.722656 -85.378906 L 7.722656 -14.324219 C 7.722656 -3.132812 12.195312 0 20.476562 0 Z M 26.070312 0 "/></g></g></g><g fill="#ffffff" fill-opacity="1"><g transform="translate(1115.630562, 303.96348)"><g><path d="M 26.296875 1.117188 C 31.21875 1.117188 35.808594 -0.222656 39.722656 -2.574219 C 43.304688 -4.699219 46.214844 -7.722656 48.226562 -11.527344 L 48.226562 0 L 55.5 0 L 55.5 -36.703125 C 55.5 -45.09375 53.488281 -51.695312 49.234375 -56.171875 C 45.320312 -60.3125 39.5 -62.550781 31.667969 -62.550781 C 19.804688 -62.550781 9.511719 -55.726562 7.609375 -43.527344 L 14.882812 -43.527344 C 16.335938 -51.136719 23.273438 -56.058594 31.554688 -56.058594 C 37.261719 -56.058594 41.402344 -54.605469 44.085938 -51.585938 C 46.773438 -48.5625 48.003906 -44.3125 48.226562 -38.828125 L 26.296875 -34.464844 C 22.042969 -33.570312 16.335938 -32.226562 11.972656 -29.207031 C 8.167969 -26.519531 5.371094 -22.492188 5.371094 -16.335938 C 5.371094 -5.035156 14.210938 1.117188 26.296875 1.117188 Z M 25.738281 -5.371094 C 18.351562 -5.371094 12.644531 -9.289062 12.644531 -16.335938 C 12.644531 -19.695312 13.988281 -22.15625 16.113281 -23.945312 C 18.796875 -26.183594 22.714844 -27.304688 26.40625 -28.085938 L 48.226562 -32.675781 C 48.226562 -21.371094 45.320312 -12.195312 36.253906 -7.832031 C 32.898438 -6.15625 29.429688 -5.371094 25.738281 -5.371094 Z M 25.738281 -5.371094 "/></g></g></g><g fill="#ffffff" fill-opacity="1"><g transform="translate(1178.404056, 303.96348)"><g><path d="M 17.566406 23.945312 C 21.371094 23.945312 26.855469 23.050781 30.324219 13.761719 L 58.074219 -61.429688 L 50.019531 -61.429688 L 31.441406 -9.847656 L 10.292969 -61.429688 L 2.238281 -61.429688 L 27.75 -0.558594 L 23.273438 11.300781 C 21.371094 16.226562 19.359375 17.34375 14.210938 17.34375 L 7.496094 17.34375 L 7.496094 23.945312 Z M 17.566406 23.945312 "/></g></g></g><g fill="#ffffff" fill-opacity="1"><g transform="translate(1239.038962, 303.96348)"><g/></g></g></svg>